#!OML:ASF E:\I on waltz\AllaLogoMonkeySwing\Project 1\Capture day 1\Session 1\Subject1.ASF
:FULLY-SPECIFIED
:DEGREES
449
root 1.10778 17.7613 5.59445 2.82408 -0.215881 2.55126
lowerback -0.0772411 -0.424992 -3.62315
upperback -3.15091 -0.623996 0.224217
thorax -3.15907 -0.209622 2.27758
lowerneck -12.5591 -2.68217 -3.00018
upperneck 15.9406 -3.42729 1.96744
head 7.03233 -1.65645 0.796007
rclavicle -9.86469e-015 -1.64991e-014
rhumerus -39.1714 -39.1314 -62.3685
rradius 14.0943
rwrist 25.057
rhand -6.41264 -35.469
rfingers 7.12502
rthumb 19.4356 -64.5176
lclavicle -9.86469e-015 -1.64991e-014
lhumerus -45.5919 31.8229 66.8141
lradius 26.68
lwrist -16.4353
lhand -3.73231 -11.3125
lfingers 7.12502
lthumb 22.011 17.455
rfemur 1.55506 -0.154913 10.6634
rtibia 12.6719
rfoot -13.9111 -13.7289
rtoes 12.893
lfemur 2.6458 -0.0900794 -19.5171
ltibia 10.5569
lfoot -14.7621 6.4462
ltoes -29.843
450
root 1.12377 17.7604 5.57885 2.84982 -0.215958 2.5456
lowerback 0.134713 -0.384169 -3.59428
upperback -3.07971 -0.576548 0.214211
thorax -3.20835 -0.186905 2.2514
lowerneck -13.0286 -3.10934 -2.91594
upperneck 16.3925 -3.94682 1.54721
head 7.26468 -1.93463 0.584851
rclavicle -1.11816e-016 6.75868e-015
rhumerus -41.0187 -40.5366 -60.0898
rradius 13.6454
rwrist 26.8186
rhand -6.79759 -35.293
rfingers 7.12502
rthumb 19.0655 -64.3786
lclavicle -1.11816e-016 6.75868e-015
lhumerus -45.9234 31.2925 66.9466
lradius 27.0502
lwrist -15.4047
lhand -3.94348 -11.0754
lfingers 7.12502
lthumb 21.8082 17.7159
rfemur 1.42609 -0.094484 10.6125
rtibia 12.7325
rfoot -13.9425 -13.794
rtoes 12.7543
lfemur 2.55533 0.0633744 -19.5108
ltibia 10.5333
lfoot -14.7046 6.28706
ltoes -29.8837
451
root 1.10742 17.7553 5.57581 2.64558 -0.332496 1.58777
lowerback 0.371255 -0.287007 -3.03133
upperback -2.88654 -0.431945 0.547512
thorax -3.15087 -0.128388 2.27595
lowerneck -12.3167 -3.04512 -3.172
upperneck 15.7988 -3.89504 1.96995
head 6.96018 -1.89321 0.782434
rclavicle 1.42876e-015 2.78299e-015
rhumerus -42.5832 -41.4252 -58.2828
rradius 13.4067
rwrist 27.9499
rhand -7.00109 -35.4053
rfingers 7.12502
rthumb 18.8698 -64.5101
lclavicle 1.42876e-015 2.78299e-015
lhumerus -46.2558 31.0882 66.9032
lradius 27.3719
lwrist -14.8052
lhand -4.03664 -10.9301
lfingers 7.12502
lthumb 21.7188 17.8715
rfemur 1.67348 1.29268 12.1567
rtibia 12.5172
rfoot -13.9713 -14.9394
rtoes 13.2126
lfemur 2.78222 0.404464 -18.0144
ltibia 10.4737
lfoot -14.7573 6.06593
ltoes -30.0212
452
root 1.1245 17.7581 5.55056 2.7438 -0.278951 1.41136
lowerback 0.596105 -0.276067 -2.76844
upperback -2.81231 -0.417295 0.556521
thorax -3.2027 -0.127877 2.13844
lowerneck -11.9851 -3.13409 -3.39857
upperneck 15.3939 -4.03143 2.28891
head 6.78713 -1.94763 0.915527
rclavicle 4.34841e-015 -5.96354e-016
rhumerus -43.6841 -41.8486 -57.1213
rradius 13.3463
rwrist 28.5609
rhand -6.86916 -35.9896
rfingers 7.12502
rthumb 18.9967 -65.0819
lclavicle 4.34841e-015 -5.96354e-016
lhumerus -46.5098 31.157 66.7448
lradius 27.6306
lwrist -14.4323
lhand -4.08954 -10.7845
lfingers 7.12502
lthumb 21.668 18.023
rfemur 1.39599 1.42939 12.3493
rtibia 12.6723
rfoot -13.9264 -15.1375
rtoes 13.3724
lfemur 2.47766 0.414379 -17.8294
ltibia 10.6467
lfoot -14.8337 5.98456
ltoes -30.2883
453
root 1.14221 17.7585 5.53538 2.81696 -0.130829 1.47289
lowerback 0.666043 -0.306295 -2.74815
upperback -2.66692 -0.458957 0.503591
thorax -3.0898 -0.153294 2.07364
lowerneck -11.9658 -3.33832 -3.47728
upperneck 15.1532 -4.3015 2.35152
head 6.71775 -2.07733 0.923912
rclavicle 1.2921e-014 3.57812e-015
rhumerus -44.7606 -42.4457 -55.858
rradius 13.2311
rwrist 29.3162
rhand -6.80923 -36.2257
rfingers 7.12502
rthumb 19.0543 -65.3123
lclavicle 1.2921e-014 3.57812e-015
lhumerus -46.609 31.0973 66.8194
lradius 27.9795
lwrist -13.8742
lhand -4.27135 -10.4413
lfingers 7.12502
lthumb 21.4934 18.3863
rfemur 1.23463 1.32791 12.1919
rtibia 12.7781
rfoot -13.8623 -15.2107
rtoes 13.4034
lfemur 2.27392 0.365688 -17.9431
ltibia 10.7156
lfoot -14.8719 5.83435
ltoes -30.4449
454
root 1.16059 17.7586 5.5257 2.89685 0.00137123 1.63892
lowerback 0.626711 -0.326241 -2.87199
upperback -2.49594 -0.486363 0.451832
thorax -2.88908 -0.16969 2.08948
lowerneck -12.0663 -3.5705 -3.54389
upperneck 14.9928 -4.60618 2.39599
head 6.69571 -2.22339 0.918899
rclavicle 1.82261e-014 -5.96354e-016
rhumerus -45.9787 -43.3345 -54.2054
rradius 12.9793
rwrist 30.3317
rhand -6.83049 -35.7641
rfingers 7.12502
rthumb 19.0338 -64.8528
lclavicle 1.82261e-014 -5.96354e-016
lhumerus -46.5967 30.9962 67.0359
lradius 28.3115
lwrist -13.329
lhand -4.44079 -10.0241
lfingers 7.12502
lthumb 21.3306 18.8219
rfemur 1.11739 1.25707 11.9062
rtibia 12.8145
rfoot -13.8671 -15.2867
rtoes 13.5731
lfemur 2.12967 0.379863 -18.1809
ltibia 10.7012
lfoot -14.8526 5.64211
ltoes -30.3094
455
root 1.17895 17.7595 5.51163 2.94534 0.086535 1.66915
lowerback 0.67747 -0.357741 -2.89373
upperback -2.35696 -0.528351 0.463665
thorax -2.77153 -0.193468 2.11479
lowerneck -12.1352 -3.77752 -3.61631
upperneck 14.8901 -4.87846 2.44548
head 6.6863 -2.35398 0.919581
rclavicle 1.85739e-014 -1.78906e-015
rhumerus -46.7393 -43.6384 -53.2439
rradius 12.8687
rwrist 30.703
rhand -6.74368 -35.4643
rfingers 7.12502
rthumb 19.1173 -64.5448
lclavicle 1.85739e-014 -1.78906e-015
lhumerus -46.6439 31.1001 67.134
lradius 28.5443
lwrist -12.9563
lhand -4.50601 -9.83437
lfingers 7.12502
lthumb 21.268 19.0187
rfemur 0.987563 1.20001 11.789
rtibia 12.8957
rfoot -13.8707 -15.3191
rtoes 13.6728
lfemur 2.01665 0.395696 -18.2732
ltibia 10.7041
lfoot -14.8177 5.51107
ltoes -30.1174
456
root 1.19635 17.7599 5.49692 2.95909 0.216268 1.75574
lowerback 0.7771 -0.416498 -2.96933
upperback -2.22043 -0.610078 0.449877
thorax -2.68161 -0.235824 2.14556
lowerneck -11.9581 -4.04344 -4.16312
upperneck 14.572 -5.24442 3.08444
head 6.59803 -2.51001 1.18231
rclavicle -5.09696e-015 3.77691e-015
rhumerus -46.9268 -43.3401 -53.1761
rradius 12.9605
rwrist 30.2432
rhand -6.59004 -35.7086
rfingers 7.12502
rthumb 19.2651 -64.7744
lclavicle -5.09696e-015 3.77691e-015
lhumerus -46.7022 31.2902 67.21
lradius 28.7573
lwrist -12.6843
lhand -4.59259 -9.88561
lfingers 7.12502
lthumb 21.1848 18.9769
rfemur 0.898387 1.09682 11.6023
rtibia 12.9964
rfoot -13.8546 -15.3461
rtoes 13.74
lfemur 1.90971 0.395264 -18.4336
ltibia 10.7564
lfoot -14.8348 5.35918
ltoes -30.0714
457
root 1.21327 17.7592 5.48316 2.99973 0.359565 1.99367
lowerback 0.83943 -0.447291 -3.16602
upperback -2.06527 -0.65719 0.366279
thorax -2.55315 -0.2602 2.1709
lowerneck -11.4557 -4.47286 -5.71247
upperneck 13.8717 -5.86205 5.00319
head 6.4174 -2.74512 1.99928
rclavicle -6.73694e-015 3.37934e-015
rhumerus -47.0165 -43.1906 -53.1549
rradius 13.0523
rwrist 29.8078
rhand -6.62445 -35.9483
rfingers 7.12502
rthumb 19.232 -65.0174
lclavicle -6.73694e-015 3.37934e-015
lhumerus -46.5481 31.2575 67.5368
lradius 29.0014
lwrist -12.2998
lhand -4.78578 -9.81827
lfingers 7.12502
lthumb 20.9992 19.0649
rfemur 0.808354 0.995809 11.2288
rtibia 13.0517
rfoot -13.859 -15.4013
rtoes 13.8956
lfemur 1.75619 0.392686 -18.7658
ltibia 10.8872
lfoot -14.8941 5.20028
ltoes -29.7976
458
root 1.23044 17.7586 5.46833 3.01545 0.487073 2.10434
lowerback 0.923208 -0.469981 -3.24312
upperback -1.88495 -0.690184 0.32293
thorax -2.4122 -0.280287 2.1702
lowerneck -11.5374 -4.77051 -5.7945
upperneck 13.6027 -6.25292 5.09914
head 6.37376 -2.93029 2.00446
rclavicle -2.34504e-014 2.5842e-015
rhumerus -46.9892 -43.189 -53.1719
rradius 13.1231
rwrist 29.5353
rhand -6.77408 -35.891
rfingers 7.12502
rthumb 19.0881 -64.9743
lclavicle -2.34504e-014 2.5842e-015
lhumerus -46.2154 31.1248 68.0232
lradius 29.2361
lwrist -11.8328
lhand -4.99911 -9.61768
lfingers 7.12502
lthumb 20.7943 19.2881
rfemur 0.737956 0.854705 11.0082
rtibia 13.1166
rfoot -13.8412 -15.4192
rtoes 13.794
lfemur 1.66115 0.350198 -18.9495
ltibia 11.0223
lfoot -14.9267 5.08257
ltoes -29.348
459
root 1.24394 17.7599 5.45294 2.97836 0.568825 1.94666
lowerback 1.02733 -0.523258 -3.15154
upperback -1.68203 -0.758145 0.40173
thorax -2.25748 -0.320322 2.20156
lowerneck -11.4531 -5.05035 -5.9838
upperneck 13.174 -6.61328 5.26975
head 6.25618 -3.10415 2.05793
rclavicle -1.87054e-014 -2.5842e-015
rhumerus -46.67 -43.1122 -53.4461
rradius 13.193
rwrist 29.1861
rhand -6.88295 -35.8235
rfingers 7.12502
rthumb 18.9834 -64.9171
lclavicle -1.87054e-014 -2.5842e-015
lhumerus -45.9368 31.1439 68.4694
lradius 29.4904
lwrist -11.4897
lhand -5.20952 -9.52946
lfingers 7.12502
lthumb 20.5921 19.3983
rfemur 0.726654 0.857526 11.1677
rtibia 13.1422
rfoot -13.7878 -15.5047
rtoes 13.6836
lfemur 1.65466 0.398138 -18.769
ltibia 11.0591
lfoot -14.9585 4.9121
ltoes -28.857
460
root 1.25578 17.762 5.43672 2.94473 0.650056 1.86385
lowerback 1.12653 -0.600012 -3.18108
upperback -1.50641 -0.86025 0.491187
thorax -2.12454 -0.37455 2.31289
lowerneck -11.18 -5.29689 -6.24965
upperneck 12.6094 -6.9303 5.51627
head 6.06797 -3.25946 2.15747
rclavicle 9.49041e-015 3.57812e-015
rhumerus -46.1006 -42.886 -53.9547
rradius 13.263
rwrist 28.6396
rhand -7.0915 -36.0479
rfingers 7.12502
rthumb 18.7828 -65.1611
lclavicle 9.49041e-015 3.57812e-015
lhumerus -45.7714 31.1141 68.9708
lradius 29.8411
lwrist -11.1822
lhand -5.3283 -9.64246
lfingers 7.12502
lthumb 20.478 19.2976
rfemur 0.735487 0.89224 11.2384
rtibia 13.1011
rfoot -13.7417 -15.5942
rtoes 14.0418
lfemur 1.63096 0.422555 -18.6901
ltibia 11.0597
lfoot -14.9994 4.77231
ltoes -28.5164
461
root 1.26967 17.7627 5.41894 2.93643 0.78248 2.06358
lowerback 1.23436 -0.712161 -3.49836
upperback -1.3726 -1.01816 0.51931
thorax -2.03218 -0.451749 2.52467
lowerneck -11.2031 -5.62372 -6.44933
upperneck 12.5365 -7.33191 5.49046
head 6.08013 -3.46525 2.14217
rclavicle 6.32384e-015 3.97569e-016
rhumerus -45.5199 -42.7929 -54.3795
rradius 13.3158
rwrist 28.2482
rhand -7.21777 -36.3228
rfingers 7.12502
rthumb 18.6614 -65.4477
lclavicle 6.32384e-015 3.97569e-016
lhumerus -45.5824 30.9733 69.5848
lradius 30.2113
lwrist -10.7714
lhand -5.31606 -9.77389
lfingers 7.12502
lthumb 20.4897 19.1649
rfemur 0.699184 0.702572 10.9021
rtibia 13.1289
rfoot -13.7108 -15.5502
rtoes 14.1078
lfemur 1.55276 0.327335 -19.0087
ltibia 11.0864
lfoot -14.9928 4.73159
ltoes -28.7511
462
root 1.28207 17.7631 5.40183 2.92282 0.888312 2.21494
lowerback 1.34475 -0.815987 -3.75821
upperback -1.25032 -1.16442 0.540159
thorax -1.95324 -0.524184 2.69661
lowerneck -10.9671 -5.91582 -6.86706
upperneck 12.2155 -7.707 5.81737
head 5.99182 -3.64837 2.28386
rclavicle -1.41851e-014 1.19271e-015
rhumerus -44.9498 -42.8143 -54.816
rradius 13.4124
rwrist 28.0304
rhand -7.03902 -36.6376
rfingers 7.12502
rthumb 18.8333 -65.7459
lclavicle -1.41851e-014 1.19271e-015
lhumerus -45.2728 30.7623 70.2227
lradius 30.4603
lwrist -10.2956
lhand -5.42445 -9.67741
lfingers 7.12502
lthumb 20.3855 19.2726
rfemur 0.649335 0.498644 10.629
rtibia 13.1946
rfoot -13.6661 -15.4773
rtoes 13.7221
lfemur 1.48689 0.316182 -19.2473
ltibia 11.1139
lfoot -14.9691 4.65184
ltoes -28.9553
463
root 1.3317 17.7697 5.36308 3.17024 1.0578 3.0022
lowerback 1.50593 -0.939409 -4.08703
upperback -1.28539 -1.35026 0.236672
thorax -2.06656 -0.611495 2.57729
lowerneck -10.775 -6.28987 -7.15286
upperneck 12.0653 -8.19172 5.93986
head 5.96112 -3.892 2.3268
rclavicle -3.53464e-015 -5.56597e-015
rhumerus -44.0304 -42.3255 -55.9099
rradius 13.6325
rwrist 27.2128
rhand -6.64141 -36.6553
rfingers 7.12502
rthumb 19.2157 -65.726
lclavicle -3.53464e-015 -5.56597e-015
lhumerus -44.9353 30.4998 70.7795
lradius 30.6406
lwrist -9.96547
lhand -5.45852 -9.71992
lfingers 7.12502
lthumb 20.3528 19.2336
rfemur 0.154683 -0.906604 9.21235
rtibia 13.5857
rfoot -13.5382 -14.4356
rtoes 12.6851
lfemur 1.01487 0.136814 -20.6103
ltibia 11.3048
lfoot -14.9434 4.62275
ltoes -28.6286
